<svg width="600" height="600" viewBox="0 0 600 600" fill="none" xmlns="http://www.w3.org/2000/svg">
<circle cx="300" cy="300" r="300" fill="#1A73FA"/>
<path d="M314.445 264.009C313.246 264.089 312.142 264.713 311.443 265.715L264.751 332.572C263.875 333.819 263.756 335.461 264.443 336.83C265.126 338.195 266.502 339.053 268.003 339.053H291.933L280.177 378.792C279.65 380.69 280.521 382.694 282.246 383.573C283.971 384.447 286.06 383.946 287.222 382.374L335.249 315.516C336.119 314.275 336.244 312.644 335.567 311.279C334.894 309.915 333.534 309.051 332.039 309.035H307.943L318.574 269.168C318.912 267.889 318.631 266.524 317.808 265.501C316.99 264.478 315.739 263.923 314.447 264.009L314.445 264.009ZM304.94 289.08L298.811 312.019C298.473 313.256 298.717 314.588 299.484 315.612C300.244 316.63 301.432 317.227 302.688 317.221H324.159L294.601 358.367L301.188 336.111C301.543 334.874 301.308 333.542 300.552 332.508C299.797 331.474 298.614 330.866 297.353 330.866H275.757L304.94 289.08Z" fill="white"/>
<path d="M132.144 468.743V502H118.267V468.743H107.637V455.345H142.739V468.743H132.144ZM159.692 455.345V469.598C161.857 468.025 164.022 467.239 166.187 467.239C169.468 467.239 172.065 468.424 173.979 470.794C175.916 473.164 176.885 476.365 176.885 480.398V502H164.102V483.987C164.102 482.529 163.942 481.549 163.623 481.048C163.327 480.547 162.734 480.296 161.846 480.296C160.41 480.296 159.692 481.355 159.692 483.475V502H146.909V455.345H159.692ZM184.37 468.401H197.153V487.645C197.153 489.581 197.962 490.55 199.58 490.55C201.175 490.55 201.973 489.581 201.973 487.645V468.401H214.756V487.405C214.756 491.826 213.286 495.563 210.347 498.616C207.407 501.647 203.807 503.162 199.546 503.162C194.692 503.162 190.785 501.396 187.822 497.864C185.521 495.107 184.37 491.279 184.37 486.38V468.401ZM252.627 502H239.844V482.757C239.844 480.797 239.035 479.817 237.417 479.817C235.822 479.817 235.024 480.797 235.024 482.757V502H222.241V482.996C222.241 478.553 223.711 474.816 226.65 471.785C229.59 468.732 233.19 467.205 237.451 467.205C242.327 467.205 246.235 468.971 249.175 472.503C251.476 475.26 252.627 479.1 252.627 484.021V502ZM281.099 455.345H293.882V483.748C293.882 488.966 292.515 493.216 289.78 496.497C288.208 498.388 286.203 499.892 283.765 501.009C281.349 502.125 278.866 502.684 276.313 502.684C271.232 502.684 266.948 500.975 263.462 497.557C259.976 494.139 258.232 489.946 258.232 484.979C258.232 480.171 259.964 476.012 263.428 472.503C266.891 468.994 270.993 467.239 275.732 467.239C276.484 467.239 277.624 467.308 279.15 467.444V481.526C278.102 480.706 277.054 480.296 276.006 480.296C274.684 480.296 273.545 480.786 272.588 481.766C271.654 482.723 271.187 483.885 271.187 485.252C271.187 486.574 271.676 487.713 272.656 488.67C273.636 489.604 274.81 490.071 276.177 490.071C279.458 490.071 281.099 487.804 281.099 483.27V455.345ZM334.146 487.029H314.766C314.469 486.049 314.321 485.149 314.321 484.329C314.321 483.19 314.526 482.073 314.937 480.979H321.431C320.975 478.45 319.551 477.186 317.158 477.186C315.563 477.186 314.264 477.869 313.262 479.236C312.259 480.581 311.758 482.312 311.758 484.432C311.758 486.642 312.236 488.431 313.193 489.798C314.173 491.165 315.449 491.849 317.021 491.849C318.298 491.849 319.528 491.211 320.713 489.935L327.993 498.685C324.598 501.351 320.827 502.684 316.68 502.684C311.621 502.684 307.371 500.986 303.931 497.591C300.49 494.196 298.77 489.992 298.77 484.979C298.77 479.988 300.501 475.773 303.965 472.332C307.451 468.891 311.724 467.171 316.782 467.171C321.727 467.171 325.874 468.857 329.224 472.229C332.596 475.579 334.282 479.715 334.282 484.637C334.282 485.138 334.237 485.936 334.146 487.029ZM358.174 467.581V481.253C357.285 480.752 356.476 480.501 355.747 480.501C353.423 480.501 352.261 482.278 352.261 485.833V502H339.478V483.372C339.478 478.45 340.822 474.531 343.511 471.614C346.2 468.675 349.788 467.205 354.277 467.205C355.28 467.205 356.579 467.33 358.174 467.581ZM394.302 468.743V502H380.425V455.345H398.506C406.436 455.345 412.645 457.145 417.134 460.745C422.466 465.052 425.132 470.896 425.132 478.279C425.132 485.343 422.853 491.108 418.296 495.574C413.739 500.04 407.871 502.273 400.693 502.273C399.85 502.273 398.472 502.228 396.558 502.137V488.431H398.779C406.868 488.431 410.913 485.047 410.913 478.279C410.913 471.922 406.937 468.743 398.984 468.743H394.302ZM464.233 487.029H444.854C444.557 486.049 444.409 485.149 444.409 484.329C444.409 483.19 444.614 482.073 445.024 480.979H451.519C451.063 478.45 449.639 477.186 447.246 477.186C445.651 477.186 444.352 477.869 443.35 479.236C442.347 480.581 441.846 482.312 441.846 484.432C441.846 486.642 442.324 488.431 443.281 489.798C444.261 491.165 445.537 491.849 447.109 491.849C448.385 491.849 449.616 491.211 450.801 489.935L458.081 498.685C454.686 501.351 450.915 502.684 446.768 502.684C441.709 502.684 437.459 500.986 434.019 497.591C430.578 494.196 428.857 489.992 428.857 484.979C428.857 479.988 430.589 475.773 434.053 472.332C437.539 468.891 441.812 467.171 446.87 467.171C451.815 467.171 455.962 468.857 459.312 472.229C462.684 475.579 464.37 479.715 464.37 484.637C464.37 485.138 464.325 485.936 464.233 487.029ZM495.166 467.923L479.238 503.333L463.516 467.923H475.718L479.341 477.117L483.306 467.923H495.166Z" fill="white"/>
<path d="M221.04 324.909V319.273C226.1 319.273 229.631 318.212 231.631 316.091C233.661 313.97 234.676 310.424 234.676 305.455V290.909C234.676 286.727 235.07 283.106 235.858 280.045C236.676 276.985 237.994 274.455 239.812 272.455C241.631 270.455 244.055 268.97 247.085 268C250.116 267.03 253.858 266.545 258.312 266.545V275.455C254.797 275.455 252.025 276 249.994 277.091C247.994 278.182 246.57 279.879 245.722 282.182C244.903 284.455 244.494 287.364 244.494 290.909V309.091C244.494 311.455 244.176 313.606 243.54 315.545C242.934 317.485 241.797 319.152 240.131 320.545C238.464 321.939 236.085 323.015 232.994 323.773C229.934 324.53 225.949 324.909 221.04 324.909ZM258.312 382.909C253.858 382.909 250.116 382.424 247.085 381.455C244.055 380.485 241.631 379 239.812 377C237.994 375 236.676 372.47 235.858 369.409C235.07 366.348 234.676 362.727 234.676 358.545V344C234.676 339.03 233.661 335.485 231.631 333.364C229.631 331.242 226.1 330.182 221.04 330.182V324.545C225.949 324.545 229.934 324.924 232.994 325.682C236.085 326.439 238.464 327.515 240.131 328.909C241.797 330.303 242.934 331.97 243.54 333.909C244.176 335.848 244.494 338 244.494 340.364V358.545C244.494 362.091 244.903 365 245.722 367.273C246.57 369.545 247.994 371.227 249.994 372.318C252.025 373.439 254.797 374 258.312 374V382.909ZM221.04 330.182V319.273H231.767V330.182H221.04Z" fill="white"/>
<path d="M377.949 324.545V330.182C372.888 330.182 369.343 331.242 367.312 333.364C365.312 335.485 364.312 339.03 364.312 344V358.545C364.312 362.727 363.903 366.348 363.085 369.409C362.297 372.47 360.994 375 359.176 377C357.358 379 354.934 380.485 351.903 381.455C348.873 382.424 345.131 382.909 340.676 382.909V374C344.191 374 346.949 373.439 348.949 372.318C350.979 371.227 352.403 369.545 353.222 367.273C354.07 365 354.494 362.091 354.494 358.545V340.364C354.494 338 354.797 335.848 355.403 333.909C356.04 331.97 357.191 330.303 358.858 328.909C360.525 327.515 362.888 326.439 365.949 325.682C369.04 324.924 373.04 324.545 377.949 324.545ZM340.676 266.545C345.131 266.545 348.873 267.03 351.903 268C354.934 268.97 357.358 270.455 359.176 272.455C360.994 274.455 362.297 276.985 363.085 280.045C363.903 283.106 364.312 286.727 364.312 290.909V305.455C364.312 310.424 365.312 313.97 367.312 316.091C369.343 318.212 372.888 319.273 377.949 319.273V324.909C373.04 324.909 369.04 324.53 365.949 323.773C362.888 323.015 360.525 321.939 358.858 320.545C357.191 319.152 356.04 317.485 355.403 315.545C354.797 313.606 354.494 311.455 354.494 309.091V290.909C354.494 287.364 354.07 284.455 353.222 282.182C352.403 279.879 350.979 278.182 348.949 277.091C346.949 276 344.191 275.455 340.676 275.455V266.545ZM377.949 319.273V330.182H367.222V319.273H377.949Z" fill="white"/>
<path d="M497.069 327.517C488.647 303.274 478.106 279.751 465.548 257.198C462.404 251.5 446.4 222.836 439.557 218.798H439.574C430.95 213.643 421.821 209.302 412.306 205.855L420.56 192.113C420.863 191.602 421.065 191.044 421.166 190.469C423.923 172.929 415.164 150.266 408.137 132.039C405.397 124.937 402.808 118.218 401.295 112.871C394.974 90.4318 365.201 64.529 352.693 54.4577C339.446 43.7645 311.875 24.0063 300.342 24.0063H300.006C288.675 23.5914 260.701 43.653 247.32 54.4577C234.812 64.5446 205.039 90.4313 198.718 112.888C197.205 118.234 194.616 124.953 191.876 132.056C184.849 150.266 176.09 172.946 178.847 190.486V190.47C178.931 191.044 179.133 191.603 179.435 192.114L187.69 205.871C178.175 209.318 169.046 213.659 160.439 218.815C153.613 222.852 137.592 251.5 134.448 257.214C121.907 279.765 111.366 303.289 102.943 327.517C97.4967 343.557 99.6821 361.049 108.895 375.459C118.107 389.935 132.885 400.436 150.116 404.762V411.545C150.402 418.663 156.689 424.217 164.17 423.994H436.295C443.793 424.217 450.064 418.647 450.333 411.545V404.634C467.464 400.197 482.123 389.664 491.235 375.204C500.347 360.856 502.466 343.462 497.069 327.517ZM425.266 391.099H175.197V262.623C175.214 260.948 176.643 259.591 178.425 259.559H422.025H422.008C423.79 259.591 425.219 260.948 425.253 262.623L425.266 391.099ZM333.88 250.191H266.131C266.064 243.168 266.165 235.428 266.434 226.203V226.187C276.453 232.571 286.943 238.221 297.854 243.088C299.216 243.711 300.796 243.711 302.158 243.088C313.069 238.221 323.559 232.571 333.579 226.187C333.848 235.428 333.947 243.168 333.88 250.191ZM300.005 233.656C263.995 216.85 240.274 198.975 233.952 164.407C256.798 154.225 282.067 146.58 300.005 145.606C317.943 146.58 343.21 154.209 366.059 164.391C359.737 198.976 336.017 216.851 300.005 233.656ZM224.759 168.713C227.734 184.386 235.451 198.893 246.95 210.498C250.026 213.61 253.321 216.547 256.784 219.276C256.331 231.629 256.179 241.444 256.247 250.19L225.683 250.174L189.925 190.612C200.499 181.946 212.217 174.573 224.759 168.699V168.713ZM343.748 250.187C343.832 241.441 343.647 231.625 343.21 219.273H343.227C346.707 216.543 350.002 213.607 353.079 210.479C364.578 198.892 372.294 184.369 375.27 168.694C387.811 174.567 399.512 181.941 410.086 190.607L374.294 250.169L343.748 250.187ZM201.153 135.276C203.977 127.966 206.65 121.087 208.264 115.294C212.181 101.377 228.606 81.9218 253.32 61.9098C276.923 42.7898 295.533 33.3735 299.468 33.3735H299.553C299.855 33.4054 300.158 33.4054 300.46 33.3735C304.26 33.2298 322.937 42.662 346.708 61.9098C371.421 81.9234 387.846 101.379 391.764 115.294C393.378 121.056 396.051 127.966 398.875 135.276C404.221 149.113 410.61 165.679 411.686 179.532C384.3 158.577 332.252 137.862 300.292 136.232C300.107 136.216 299.939 136.216 299.754 136.232C267.812 137.86 215.745 158.576 188.361 179.532C189.42 165.679 195.807 149.113 201.153 135.276ZM117.346 370.622C109.529 358.541 107.713 343.793 112.37 330.323C128.543 281.437 160.383 230.734 165.728 226.713C174.218 221.638 183.229 217.409 192.626 214.105L214.296 250.206H178.438C171.209 250.222 165.341 255.792 165.325 262.655V391.102H155.036C152.615 391.102 150.547 392.778 150.161 395.044C136.493 390.911 124.844 382.241 117.346 370.622ZM440.479 411.545C440.159 413.46 438.327 414.801 436.293 414.609H164.168C162.151 414.801 160.301 413.46 159.982 411.545V400.469H440.482L440.479 411.545ZM482.776 370.434C475.43 382.069 463.88 390.783 450.263 394.933C449.843 392.714 447.792 391.102 445.421 391.102H435.133V262.626C435.116 255.764 429.266 250.209 422.037 250.193H385.69L407.377 214.108C416.775 217.428 425.802 221.657 434.292 226.732C439.655 230.738 471.496 281.461 487.65 330.342C492.273 343.749 490.493 358.384 482.776 370.434ZM319.859 290.795L289.8 363.3C289.06 365.104 287.228 363.3 289.8 363.3" fill="white"/>
</svg>
